<svg viewBox="0 0 394.71 73.98" xmlns="http://www.w3.org/2000/svg"><switch transform="translate(-49.76 -44.5)"><g><g fill="#fff"><path d="m176.55 104.19h-18.38v-28.83l18.38.04zm-14.97-3.24h11.47v-22.31h-11.47z"/><path d="m192.03 104.15h-7.21v7.63h-3.41v-28.57h14.42v17.19c0 2.09-1.71 3.75-3.8 3.75zm-7.21-17.83v14.8h7.68v-14.8z"/><path d="m204.44 104.19c-2.09 0-3.75-1.71-3.75-3.8v-17.18h14.12v10.49h-10.75v7.46h10.88v3.03zm-.38-17.87v4.26h7.42v-4.26z"/><path d="m233.74 104.19h-3.2v-17.78h-8.45v17.79h-3.15v-20.99h11c2.09 0 3.8 1.71 3.8 3.8z"/><path d="m263.33 104.23-14.59-.04v-28.79h14.59v3.2h-11.09v7.55h9.81v3.24h-9.81v11.6h11.09z"/><path d="m289.73 104.19h-3.24v-17.78h-6.65v17.19h-3.16v-17.19h-6.53v17.79h-3.2v-20.99h18.98c2.09 0 3.8 1.71 3.8 3.8z"/><path d="m305.59 104.19h-11v-20.98h14.8v17.19c0 2.09-1.71 3.79-3.8 3.79zm-7.85-17.78v14.54h8.45v-14.54z"/><path d="m309.38 108.8h4.99v-25.64h3.37v24.87c0 2.09-1.62 3.8-3.75 3.8h-4.61zm4.99-30.8v3.15h3.37v-3.15z"/><path d="m326.01 78v3.2h-3.41v-3.2zm0 5.21v20.98h-3.41v-20.98z"/><path d="m356.42 86.15h3.16v18.04h-18.55v-28.79h15.4v10.75zm-3.58-7.51h-8.32v7.51h8.32zm-8.32 22.31h11.47v-11.56h-11.47z"/><path d="m378.76 100.4c0 2.05-1.62 3.71-3.63 3.8h-10.7v-13.66h10.92v-4.22h-10.54v-3.11h13.95zm-11.04-6.74v7.51h7.64v-7.51z"/><path d="m384.26 86.32h-2.26v-3.11h2.26v-7.21h3.41v7.21h4.52v3.11h-4.52v14.84h5.12v3.03h-4.73c-2.09 0-3.8-1.71-3.8-3.8z"/><path d="m395.86 86.32h-2.26v-3.11h2.26v-7.21h3.41v7.21h4.52v3.11h-4.52v14.84h5.12v3.03h-4.73c-2.09 0-3.8-1.71-3.8-3.8z"/><path d="m410.23 104.19h-3.41v-28.19h3.41z"/><path d="m418.84 104.19c-2.09 0-3.75-1.71-3.75-3.8v-17.18h14.12v10.49h-10.75v7.46h10.88v3.03zm-.38-17.87v4.26h7.42v-4.26z"/><path d="m433.34 104.19v-20.98h11.13v3.11h-7.72v17.87z"/></g><path d="m91.94 97.78c1.17-.04 2.36-.07 3.57-.07 1.22 0 2.42.02 3.61.07l3.92-28.3-7.51-11.99-7.51 11.99z" fill="#86c146"/><path d="m103.63 98.06c2.14.19 4.21.45 6.19.79l7.38-26.86-4.68-10.61-7.83 8.13z" fill="#009844"/><path d="m95.53 57.49 4.74-6.31-4.74-6.68-4.74 6.68z" fill="#86c146"/><path d="m126.54 66.99 4.56-3.3-1.07-7.66-5.24 4.83z" fill="#1861ad"/><path d="m112.52 61.38 4.86-5.04-2.44-7.42-5.46 5.55z" fill="#009844"/><path d="m114.34 99.8c2.02.51 3.91 1.1 5.65 1.78l9.37-24.66-2.82-9.93-7.65 5.52z" fill="#1861ad"/><path d="m73.58 56.34 4.86 5.04 3.04-6.91-5.46-5.55z" fill="#f4c41e"/><path d="m64.12 105.43c.91-.74 1.93-1.42 3.07-2.06l-6.83-24.99-6.23-3.92-1.59 8.47z" fill="#e73b18"/><path d="m81.14 98.86c1.98-.34 4.04-.61 6.18-.8l-1.06-28.55-7.83-8.13-4.68 10.61z" fill="#f4c41e"/><path d="m136.83 74.47 4.37-2.75-.68-6.21-4.68 3.67z" fill="#9c3f92"/><path d="m130.6 78.38-6.82 24.96c1.14.63 2.17 1.32 3.08 2.05l11.56-22.47-1.59-8.47z" fill="#9c3f92"/><path d="m59.86 63.69 4.56 3.3 1.74-6.13-5.24-4.83z" fill="#eb8d00"/><path d="m54.13 74.47.99-5.29-4.68-3.67-.68 6.21z" fill="#e73b18"/><path d="m70.97 101.59c1.73-.68 3.62-1.28 5.64-1.78l-4.54-27.3-7.65-5.52-2.82 9.93z" fill="#eb8d00"/><path d="m95.77 99.26h-.24c-12.73 0-27.29 2.33-30.73 8.44l1.55 5.14c1.48 1.48 3.98 2.71 8.04 3.66 5.48 1.28 12.98 1.98 21.14 1.98h.12.12c8.15 0 15.66-.7 21.14-1.98 4.06-.95 6.56-2.17 8.04-3.66l1.55-5.14c-3.43-6.11-17.99-8.44-30.73-8.44zm21.16 15.94c-5.68 1.33-12.59 2.06-21.15 2.06h-.12-.12c-8.57 0-15.48-.73-21.15-2.06-7.45-1.74-6.98-3.64-6.98-3.66s1.77-6.74 28.14-6.74h.12.12c26.37 0 28.14 6.72 28.14 6.74-.02.02.45 1.92-7 3.66z" fill="#aa890d"/></g></switch></svg>