<svg viewBox="0 0 178.58 168.24" xmlns="http://www.w3.org/2000/svg"><switch transform="translate(-60.01 -65.18)"><g><g fill="#fff"><path d="m91.35 229.84h-8.62v-13.52l8.62.02zm-7.02-1.52h5.38v-10.46h-5.38z"/><path d="m98.61 229.82h-3.38v3.58h-1.6v-13.4h6.76v8.06c0 .98-.8 1.76-1.78 1.76zm-3.38-8.36v6.94h3.6v-6.94z"/><path d="m104.43 229.84c-.98 0-1.76-.8-1.76-1.78v-8.06h6.62v4.92h-5.04v3.5h5.1v1.42zm-.18-8.38v2h3.48v-2z"/><path d="m118.17 229.84h-1.5v-8.34h-3.96v8.34h-1.48v-9.84h5.16c.98 0 1.78.8 1.78 1.78z"/><path d="m132.05 229.86-6.84-.02v-13.5h6.84v1.5h-5.2v3.54h4.6v1.52h-4.6v5.44h5.2z"/><path d="m144.43 229.84h-1.52v-8.34h-3.12v8.06h-1.48v-8.06h-3.06v8.34h-1.5v-9.84h8.9c.98 0 1.78.8 1.78 1.78z"/><path d="m151.87 229.84h-5.16v-9.84h6.94v8.06c0 .98-.8 1.78-1.78 1.78zm-3.68-8.34v6.82h3.96v-6.82z"/><path d="m153.65 232h2.34v-12.02h1.58v11.66c0 .98-.76 1.78-1.76 1.78h-2.16zm2.34-14.44v1.48h1.58v-1.48z"/><path d="m161.45 217.56v1.5h-1.6v-1.5zm0 2.44v9.84h-1.6v-9.84z"/><path d="m175.71 221.38h1.48v8.46h-8.7v-13.5h7.22zm-1.68-3.52h-3.9v3.52h3.9zm-3.9 10.46h5.38v-5.42h-5.38z"/><path d="m186.19 228.06c0 .96-.76 1.74-1.7 1.78h-5.02v-6.4h5.12v-1.98h-4.94v-1.46h6.54zm-5.18-3.16v3.52h3.58v-3.52z"/><path d="m188.77 221.46h-1.06v-1.46h1.06v-3.38h1.6v3.38h2.12v1.46h-2.12v6.96h2.4v1.42h-2.22c-.98 0-1.78-.8-1.78-1.78z"/><path d="m194.21 221.46h-1.06v-1.46h1.06v-3.38h1.6v3.38h2.12v1.46h-2.12v6.96h2.4v1.42h-2.22c-.98 0-1.78-.8-1.78-1.78z"/><path d="m200.95 229.84h-1.6v-13.22h1.6z"/><path d="m204.99 229.84c-.98 0-1.76-.8-1.76-1.78v-8.06h6.62v4.92h-5.04v3.5h5.1v1.42zm-.18-8.38v2h3.48v-2z"/><path d="m211.79 229.84v-9.84h5.22v1.46h-3.62v8.38z"/></g><path d="m142.38 169.25c2.29-.08 4.61-.13 6.96-.13 2.38 0 4.74.04 7.06.13l7.66-55.26-14.67-23.42-14.67 23.42z" fill="#86c146"/><path d="m165.23 169.8c4.18.37 8.22.89 12.08 1.55l14.41-52.46-9.13-20.72-15.29 15.88z" fill="#009844"/><path d="m149.39 90.56 9.26-12.32-9.26-13.06-9.25 13.06z" fill="#86c146"/><path d="m209.96 109.11 8.91-6.43-2.08-14.97-10.23 9.42z" fill="#1861ad"/><path d="m182.59 98.16 9.48-9.85-4.76-14.49-10.67 10.85z" fill="#009844"/><path d="m186.15 173.19c3.95.99 7.65 2.15 11.03 3.48l18.29-48.16-5.51-19.4-14.95 10.78z" fill="#1861ad"/><path d="m106.53 88.31 9.48 9.85 5.95-13.49-10.67-10.85z" fill="#f4c41e"/><path d="m88.05 184.18c1.77-1.44 3.77-2.78 5.99-4.02l-13.34-48.8-12.17-7.65-3.1 16.53z" fill="#e73b18"/><path d="m121.29 171.36c3.86-.66 7.89-1.18 12.08-1.55l-2.08-55.76-15.29-15.88-9.13 20.72z" fill="#f4c41e"/><path d="m230.07 123.72 8.52-5.36-1.33-12.14-9.13 7.17z" fill="#9c3f92"/><path d="m217.9 131.37-13.33 48.75c2.23 1.24 4.23 2.58 6.01 4.01l22.58-43.88-3.1-16.53z" fill="#9c3f92"/><path d="m79.73 102.68 8.91 6.43 3.4-11.98-10.23-9.42z" fill="#eb8d00"/><path d="m68.53 123.72 1.94-10.33-9.13-7.17-1.33 12.14z" fill="#e73b18"/><path d="m101.44 176.7c3.38-1.33 7.07-2.5 11.02-3.49l-8.87-53.32-14.95-10.78-5.51 19.4z" fill="#eb8d00"/><path d="m149.88 172.15h-.47c-24.87 0-53.31 4.55-60.01 16.49l3.03 10.04c2.89 2.89 7.78 5.29 15.7 7.14 10.7 2.5 25.36 3.87 41.28 3.87h.24.24c15.92 0 30.58-1.38 41.28-3.87 7.92-1.85 12.8-4.25 15.7-7.14l3.03-10.04c-6.71-11.94-35.15-16.49-60.02-16.49zm41.31 31.12c-11.09 2.59-24.59 4.02-41.32 4.02h-.24-.24c-16.73 0-30.23-1.43-41.32-4.02-14.55-3.4-13.64-7.11-13.64-7.15s3.45-13.15 54.96-13.15h.24.24c51.51 0 54.96 13.12 54.96 13.15.01.04.91 3.76-13.64 7.15z" fill="#aa890d"/></g></switch></svg>